<svg xmlns="http://www.w3.org/2000/svg" xmlns:xlink="http://www.w3.org/1999/xlink" width="40" zoomAndPan="magnify" viewBox="0 0 30 30.000001" height="40" preserveAspectRatio="xMidYMid meet" version="1.0"><defs><clipPath id="id1"><path d="M 3.386719 5.363281 L 26.613281 5.363281 L 26.613281 22.054688 L 3.386719 22.054688 Z M 3.386719 5.363281 " clip-rule="nonzero"/></clipPath></defs><g clip-path="url(#id1)"><path fill="rgb(93.728638%, 16.859436%, 17.649841%)" d="M 9.84375 5.363281 L 5.972656 5.363281 C 4.550781 5.363281 3.394531 6.511719 3.394531 7.929688 L 3.394531 11.78125 L 9.84375 11.78125 Z M 24.027344 5.363281 L 13.710938 5.363281 L 13.710938 11.78125 L 26.605469 11.78125 L 26.605469 7.929688 C 26.605469 6.511719 25.449219 5.363281 24.027344 5.363281 Z M 9.84375 22.054688 L 5.972656 22.054688 C 4.550781 22.054688 3.394531 20.90625 3.394531 19.488281 L 3.394531 15.636719 L 9.84375 15.636719 Z M 24.027344 22.054688 L 13.710938 22.054688 L 13.710938 15.636719 L 26.605469 15.636719 L 26.605469 19.488281 C 26.605469 20.90625 25.449219 22.054688 24.027344 22.054688 Z M 24.027344 22.054688 " fill-opacity="1" fill-rule="nonzero"/><path fill="rgb(0%, 15.689087%, 40.779114%)" d="M 12.742188 5.363281 L 10.84375 5.363281 L 10.828125 12.746094 L 3.394531 12.746094 L 3.394531 14.671875 L 10.824219 14.671875 L 10.808594 22.054688 L 12.742188 22.054688 L 12.742188 14.671875 L 26.605469 14.671875 L 26.605469 12.746094 L 12.742188 12.746094 Z M 12.742188 5.363281 " fill-opacity="1" fill-rule="nonzero"/><path fill="rgb(93.328857%, 93.328857%, 93.328857%)" d="M 12.742188 22.054688 L 13.710938 22.054688 L 13.710938 15.636719 L 26.605469 15.636719 L 26.605469 14.671875 L 12.742188 14.671875 Z M 13.710938 5.363281 L 12.742188 5.363281 L 12.742188 12.746094 L 26.605469 12.746094 L 26.605469 11.78125 L 13.710938 11.78125 Z M 10.808594 5.363281 L 9.84375 5.363281 L 9.84375 11.78125 L 3.394531 11.78125 L 3.394531 12.746094 L 10.808594 12.746094 Z M 3.394531 14.671875 L 3.394531 15.636719 L 9.84375 15.636719 L 9.84375 22.054688 L 10.808594 22.054688 L 10.808594 14.671875 Z M 3.394531 14.671875 " fill-opacity="1" fill-rule="nonzero"/></g></svg>